<svg id="Group_142" data-name="Group 142" xmlns="http://www.w3.org/2000/svg" width="601" height="630" viewBox="0 0 601 630">
  <path id="Path_173" data-name="Path 173" d="M352.7,0H94.2V62.8H352.7Z" fill="#e6e6e6"/>
  <path id="Path_174" data-name="Path 174" d="M100.983,56.016H345.915V6.781H100.983Z" fill="#fff"/>
  <path id="Path_175" data-name="Path 175" d="M147.634,50.155A18.757,18.757,0,1,0,128.871,31.4,18.76,18.76,0,0,0,147.634,50.155Z" fill="#6c63ff"/>
  <path id="Path_176" data-name="Path 176" d="M318.026,24.058H192.5v4.078H318.026Z" fill="#6c63ff"/>
  <path id="Path_177" data-name="Path 177" d="M318.026,34.66H192.5v4.078H318.026Z" fill="#6c63ff"/>
  <path id="Path_178" data-name="Path 178" d="M258.5,105.681H0v62.8H258.5Z" fill="#e6e6e6"/>
  <path id="Path_179" data-name="Path 179" d="M6.782,161.7H251.714V112.462H6.782Z" fill="#fff"/>
  <path id="Path_180" data-name="Path 180" d="M53.434,155.837a18.758,18.758,0,1,0-18.763-18.758A18.76,18.76,0,0,0,53.434,155.837Z" fill="#e6e6e6"/>
  <path id="Path_181" data-name="Path 181" d="M223.826,129.739H98.3v4.078H223.826Z" fill="#e6e6e6"/>
  <path id="Path_182" data-name="Path 182" d="M223.826,140.341H98.3v4.078H223.826Z" fill="#e6e6e6"/>
  <path id="Path_183" data-name="Path 183" d="M258.5,211.362H0v62.8H258.5Z" fill="#e6e6e6"/>
  <path id="Path_184" data-name="Path 184" d="M6.782,267.378H251.714V218.143H6.782Z" fill="#fff"/>
  <path id="Path_185" data-name="Path 185" d="M53.434,261.518A18.758,18.758,0,1,0,34.671,242.76,18.76,18.76,0,0,0,53.434,261.518Z" fill="#e6e6e6"/>
  <path id="Path_186" data-name="Path 186" d="M223.826,235.421H98.3V239.5H223.826Z" fill="#e6e6e6"/>
  <path id="Path_187" data-name="Path 187" d="M223.826,246.023H98.3V250.1H223.826Z" fill="#e6e6e6"/>
  <path id="Path_188" data-name="Path 188" d="M601,587.43H261.845v2.345H601Z" fill="#3f3d56"/>
  <path id="Path_189" data-name="Path 189" d="M404.61,94.871,421.3,135.932l10.269,28.23,26.955-39.778s-16.687-16.682-16.687-38.5Z" fill="#a0616a"/>
  <path id="Path_190" data-name="Path 190" d="M354.551,531.149l-7.7,38.495,21.821,17.964,8.986-56.459Z" fill="#a0616a"/>
  <path id="Path_191" data-name="Path 191" d="M480.341,522.167l-2.568,46.194,21.82-3.85,2.568-39.778Z" fill="#a0616a"/>
  <path id="Path_192" data-name="Path 192" d="M423.222,116.043A29.513,29.513,0,1,0,393.7,86.53,29.518,29.518,0,0,0,423.222,116.043Z" fill="#a0616a"/>
  <path id="Path_193" data-name="Path 193" d="M490.609,209.073s10.269,89.822,2.567,89.822-44.925-7.7-52.626-14.115-32.089-3.849-32.089-3.849-17.97,14.115-26.955,6.416,6.418-97.522,6.418-97.522l-3.851-55.176s16.686-5.133,24.388,2.566l2.349-2.784,6.674-7.879,10.23,9.38.116.436,3.735,13.679s5.468-18.58,9.332-22.455a2.709,2.709,0,0,1,.936-.642c3.851-1.283,10.619-10.309,10.619-10.309l15.233,7.781,1.1,1.245,32.09,8.982Z" fill="#e6e6e6"/>
  <path id="Path_194" data-name="Path 194" d="M389.207,282.214l-2.567,12.832s-14.119,2.566-10.268,29.512L366.1,419.513,349.417,537.565l30.8,3.849L439.266,366.9l35.94,165.529H507.3l-6.417-184.776s5.134-38.5-12.836-56.46S404.61,271.948,389.207,282.214Z" fill="#2f2e41"/>
  <path id="Path_195" data-name="Path 195" d="M359.685,572.211s2.567-10.266-3.851-11.549-11.552,3.85-12.835,6.416-30.806,38.495-30.806,38.495-21.82,25.664,10.269,24.38,33.372-16.681,33.372-16.681,0-2.566,6.418-2.566,23.1-8.982,21.821-15.4-12.078-28.592-12.078-28.592S364.819,585.042,359.685,572.211Z" fill="#2f2e41"/>
  <path id="Path_196" data-name="Path 196" d="M502.161,556.813s-11.552-7.7-17.97-2.567-8.985,6.416-8.985,6.416l-.1.777a62.784,62.784,0,0,0,3.051,28.166c.76,2.281-.737,3.923-.381,5.7,1.926,9.624,3.851,21.814,23.1,16.681S502.161,556.813,502.161,556.813Z" fill="#2f2e41"/>
  <path id="Path_197" data-name="Path 197" d="M493.176,310.444s-21.821,23.1-8.985,30.8,20.537-24.381,20.537-24.381Z" fill="#a0616a"/>
  <path id="Path_198" data-name="Path 198" d="M350.8,70.052s15.14-27.933.755-32.07-13.57,28.842-13.57,28.842Z" fill="#a0616a"/>
  <path id="Path_199" data-name="Path 199" d="M484.191,138.5l16.687-3.85s17.969,14.115,24.387,62.875S507.3,324.558,507.3,324.558L488.042,313.01s10.268-61.592,8.985-70.575-8.985-43.627-8.985-43.627Z" fill="#e6e6e6"/>
  <path id="Path_200" data-name="Path 200" d="M400.129,54.828l-5.37-1.952s11.229-11.225,26.851-10.249l-4.394-4.392s10.74-3.9,20.5,6.344c5.132,5.388,11.071,11.72,14.773,18.854h5.751l-2.4,4.8,8.4,4.8-8.622-.862a24.21,24.21,0,0,1-.816,12.429l-1.952,5.368s-7.811-15.617-7.811-17.569v4.88s-5.371-4.392-5.371-7.32l-2.929,3.416L435.279,68l-18.063,5.368,2.929-4.392-11.228,1.464,4.394-5.368s-10.626,7.339-13.181,11.713c-2.72,4.655-6.835,12.2-6.835,12.2l-2.929-4.88S385.972,62.148,400.129,54.828Z" fill="#2f2e41"/>
  <path id="Path_201" data-name="Path 201" d="M390.491,137.215l-6.418-2.566-34.015-4.491,1.926-60.951-15.4-14.115s-42.358,76.991,1.284,105.221,57.76,33.362,57.76,33.362Z" fill="#e6e6e6"/>
</svg>
