<svg xmlns="http://www.w3.org/2000/svg" xmlns:xlink="http://www.w3.org/1999/xlink" width="372.188" height="113" viewBox="0 0 372.188 113">
  <defs>
    <clipPath id="clip-path">
      <rect id="Rectangle_68" data-name="Rectangle 68" width="150" height="113" transform="translate(0.849 0.821)" fill="#fff"/>
    </clipPath>
  </defs>
  <g id="Group_141" data-name="Group 141" transform="translate(-0.849 -0.821)">
    <g id="Group_140" data-name="Group 140" clip-path="url(#clip-path)">
      <path id="Path_116" data-name="Path 116" d="M127.448,44.265a3.6,3.6,0,1,0-3.594-3.6A3.6,3.6,0,0,0,127.448,44.265Z" fill="#fff" opacity="0.4"/>
      <path id="Path_117" data-name="Path 117" d="M51.668,24.445a5.135,5.135,0,1,0-5.124-5.135A5.13,5.13,0,0,0,51.668,24.445Z" fill="#fff" opacity="0.4"/>
      <path id="Path_118" data-name="Path 118" d="M42.185,25.365a3.6,3.6,0,1,0-3.594-3.6A3.6,3.6,0,0,0,42.185,25.365Z" fill="#fff" opacity="0.4"/>
      <path id="Path_119" data-name="Path 119" d="M130.458,80.947a13.114,13.114,0,0,0-2.943,7.656,13.052,13.052,0,0,0,7.342-3.629,13.114,13.114,0,0,0,2.943-7.656A13.052,13.052,0,0,0,130.458,80.947Z" fill="#a0616a"/>
      <path id="Path_120" data-name="Path 120" d="M132.063,81.844a13.1,13.1,0,0,1-4.472,6.872,13.122,13.122,0,0,1-1.36-8.091,13.1,13.1,0,0,1,4.472-6.872A13.122,13.122,0,0,1,132.063,81.844Z" fill="#fff"/>
      <path id="Path_121" data-name="Path 121" d="M128.374,39.209V88.464l-16.381,13.564H28.19V50.392L52.643,39.209Z" fill="#a0616a"/>
      <path id="Path_122" data-name="Path 122" d="M128.374,39.209v.2l-5.88,3.945-10.5,7.041H28.19L52.643,39.209Z" opacity="0.1"/>
      <path id="Path_123" data-name="Path 123" d="M128.374,39.209V88.464l-16.381,13.564.119-51.755,10.382-6.922,5.785-4.143Z" opacity="0.1"/>
      <path id="Path_124" data-name="Path 124" d="M106.3,45.99H55.254l3.8-2.142h48.905Z"/>
      <path id="Path_125" data-name="Path 125" d="M150.348,104.707s.99,4.147.09,4.328-5.307.122-6.387.3-3.328-.122-3.328-.933,2.339-1.353,2.339-1.353,3.328-1.8,3.418-1.893S150.348,104.707,150.348,104.707Z"/>
      <path id="Path_126" data-name="Path 126" d="M149.539,80.273s-.27,3.066-.27,3.336.27,4.508,0,4.688.18,1.443.18,1.893,1.439,7.934,1.079,10.819.54,2.615.27,2.885-.27.271-.27.812-2.878.992-2.878.992L144.5,85.773l1.619-5.951Z" fill="#575a89"/>
      <path id="Path_127" data-name="Path 127" d="M149.539,80.273s-.27,3.066-.27,3.336.27,4.508,0,4.688.18,1.443.18,1.893,1.439,7.934,1.079,10.819.54,2.615.27,2.885-.27.271-.27.812-2.878.992-2.878.992L144.5,85.773l1.619-5.951Z" opacity="0.1"/>
      <path id="Path_128" data-name="Path 128" d="M149.089,105.969s.9,3.246,0,3.426-5.307-.206-6.387-.026-3.328.207-3.328-.605,2.339-1.352,2.339-1.352,3.328-1.8,3.418-1.894S149.089,105.969,149.089,105.969Z"/>
      <path id="Path_129" data-name="Path 129" d="M150.348,76.666s1.08,2.615-.18,3.967a18.339,18.339,0,0,0-2.7,4.238c0,.18,2.518,18.123,2.159,19.295a3.528,3.528,0,0,0-.18,2.074c.09.18-.9,1.172-1.979,1.172s-2.7-.812-2.879-1.533.27-6.943.18-8.115a13.6,13.6,0,0,0-.72-3.246c-.18-.361-1.169-.721-1.349-1.8s-1.619-14.877-1.169-15.328S150.348,76.666,150.348,76.666Z" fill="#575a89"/>
      <path id="Path_130" data-name="Path 130" d="M143.512,55.929a3.066,3.066,0,1,0-3.059-3.065A3.062,3.062,0,0,0,143.512,55.929Z" fill="#ffb9b9"/>
      <path id="Path_131" data-name="Path 131" d="M145.4,54.4s-.63,3.336-.18,3.7-3.419.9-3.419.9-.449-4.418-.539-4.869S145.4,54.4,145.4,54.4Z" fill="#ffb9b9"/>
      <path id="Path_132" data-name="Path 132" d="M141.263,58.724s1.079-3.156,5.487-2.254c0,0,.81.271.54.541s-.54.271-.18.541.809,0,.54.271,2.428,1.893,2.248,4.959.63,7.393,0,8.115.45,3.877.27,4.508,1.08,1.443.54,1.713-10.255,1.893-10.525,0-.09-.541-.36-.992a3.475,3.475,0,0,1-.179-2.254,18.2,18.2,0,0,0,.449-4.328c-.18-.9,0-8.475.54-9.377A4.684,4.684,0,0,0,141.263,58.724Z" fill="#fff"/>
      <path id="Path_133" data-name="Path 133" d="M143.152,80.724s1.349,5.139-.36,5.139-1.619-5.32-1.619-5.32Z" fill="#ffb9b9"/>
      <path id="Path_134" data-name="Path 134" d="M142.162,52.863c0,.262.378.427.964.465h0a4.863,4.863,0,0,0,.744-.014c.375-.034.529.318.593.784.1.767-.041,1.843.127,2.012a3.16,3.16,0,0,0,2.453-.528.49.49,0,0,0,.156-.283,1.507,1.507,0,0,1,.451-.841c.313-.342.757-.72,1.258-1.323.9-1.082,0-1.172-.27-1.984s-.72-1.082-.72-1.623-2.068-.992-3.778-.9-1.349,2.254-1.349,2.254-.1.262-.223.6a9.368,9.368,0,0,0-.4,1.3.6.6,0,0,0-.008.085Z"/>
      <path id="Path_135" data-name="Path 135" d="M142.522,60.076s3.059-.18,3.328,4.328.18,8.746.18,8.836S144.771,81.9,143.6,81.9s-2.069-.18-2.339-.631.719-6.943.719-6.943.45-6.852-.269-9.016S140.9,60.347,142.522,60.076Z" opacity="0.1"/>
      <path id="Path_136" data-name="Path 136" d="M142.072,59.625s3.059-.18,3.329,4.328.18,8.746.18,8.836-1.26,8.656-2.429,8.656-2.069-.18-2.339-.631.72-6.942.72-6.942.449-6.852-.27-9.016S140.453,59.9,142.072,59.625Z" fill="#fff"/>
      <path id="Path_137" data-name="Path 137" d="M91.356,15.553s-1.333-3.785-2.3-2.6,1.481,3.192,1.481,3.192Z" fill="#a0616a"/>
      <path id="Path_138" data-name="Path 138" d="M97.65,11.842l-.8.3a7.418,7.418,0,0,0-.235,2c.148.3.222.074,0,.668s-.889,2.152-.963,2.375-4.295-1.41-4.295-2.227a7.544,7.544,0,0,1-1.333,1.262s4.887,3.563,5.554,4.008,1.037.223,1.629-.3a50.291,50.291,0,0,0,3.11-4.824Z" fill="#575a89"/>
      <path id="Path_139" data-name="Path 139" d="M95.5,38.19s.074.816.222.891,1.259,1.93,0,2.3-2,.223-2.3.371-5.48.445-5.554-.371,2.518-.965,2.518-.965,2.37-1.559,2.74-2.375S95.5,38.19,95.5,38.19Z"/>
      <path id="Path_140" data-name="Path 140" d="M110.535,39.675s1.777,3.043,1.333,3.414a30.284,30.284,0,0,1-5.406,1.781c-.814.074-1.407-.594-.74-.965s2.073-1.93,2.073-2.449V40.12Z"/>
      <path id="Path_141" data-name="Path 141" d="M112.238,19.783s1.555,1.93-.888,5.047l-4.073,5.2s2.518,4.008,2.592,6.086.592,1.633.74,2.524.815.445.3,1.113-2.443,1.262-3.036.742a1.844,1.844,0,0,1-.592-1.485c0-.3-1.037-2-1.111-2.523a50.34,50.34,0,0,0-2.814-4.75s-.888-2.524.148-3.934a14.915,14.915,0,0,0,1.722-3.41s-3.054,3.707-5.2,4.6c0,0-.814.149-.666.52s0,.594-.222.965-1.777,4.676-2.3,5.789-.3,1.781-.889,2.152-3.258.074-3.258-.3a7.58,7.58,0,0,1,.592-1.855c.222-.52,2-6.532,1.851-7.571a2.913,2.913,0,0,1,1.185-3.043c1.111-.594,6.738-5.418,7.034-5.418S112.238,19.783,112.238,19.783Z"/>
      <path id="Path_142" data-name="Path 142" d="M97.354,8.131a3.117,3.117,0,1,0-3.11-3.117A3.113,3.113,0,0,0,97.354,8.131Z" fill="#a0616a"/>
      <path id="Path_143" data-name="Path 143" d="M99.872,5.31s.963,1.707,2.147,1.93-3.11,3.637-3.11,3.637-1.037-3.266-1.925-3.414S99.872,5.31,99.872,5.31Z" fill="#a0616a"/>
      <path id="Path_144" data-name="Path 144" d="M96.836,12.287c0,.965,2.888,3.711,2.888,3.711l2.74,2.3s.074.816.37.891.666.074.37.52-1.036,1.41-.37,1.559a5.4,5.4,0,0,0,.606.058c.178.01.387.02.622.029.548.019,1.233.032,1.976.027q.316,0,.644-.007c2.8-.056,6.044-.379,5.778-1.442-.444-1.781-.148-2.375-1.11-3.34a23.217,23.217,0,0,1-2.518-4.3s-3.11-5.27-5.7-5.27l-.538-.142a1.233,1.233,0,0,0-1.346.518,13.624,13.624,0,0,1-1.818,2.37c-.74.594-.856.168-.856.168S96.836,11.322,96.836,12.287Z" fill="#575a89"/>
      <path id="Path_145" data-name="Path 145" d="M103.426,23.569s-2.147,3.34-.814,3.934,2.073-3.488,2.073-3.488Z" fill="#a0616a"/>
      <path id="Path_146" data-name="Path 146" d="M99.387,4.661c-.119-.015-.157-.166-.177-.285a1.6,1.6,0,0,0-1.217-1.343,1.719,1.719,0,0,0-.725.059,2.749,2.749,0,0,0-.931.459,1.533,1.533,0,0,1-.465.293c-.117.034-.612.255-.728.293-.255.082-.465.349-.727.3s-.346-.354-.386-.607A3.2,3.2,0,0,1,94.6,1.9a2.033,2.033,0,0,1,1.09-.715A7.814,7.814,0,0,1,97.2.888a4.876,4.876,0,0,1,2.071.089,1.98,1.98,0,0,1,1.39,1.426c.026.143.031.29.062.432a6.45,6.45,0,0,0,.439.966,1.869,1.869,0,0,1-.056,1.508c-.185.372-.506.73-.437,1.14L100.1,6A.416.416,0,0,1,99.9,5.51l.083-.717a.629.629,0,0,0-.037-.388C99.7,3.96,99.587,4.687,99.387,4.661Z"/>
      <path id="Path_147" data-name="Path 147" d="M104.759,18.447l-.7,2.907c.7.025,1.634.039,2.62.019.249-.748.487-1.528.669-2.259.667-2.672-.444-6.754-1.037-8.684a3.721,3.721,0,0,0-2.073-2.449,6.742,6.742,0,0,0-1.7.891C101.575,9.541,104.759,18.447,104.759,18.447Z" opacity="0.1"/>
      <path id="Path_148" data-name="Path 148" d="M104.167,18.3l-.727,3.027c.178.01.387.02.622.029.548.019,1.233.032,1.976.027.267-.795.526-1.634.721-2.414.666-2.672-.445-6.754-1.037-8.684s-1.888.186-1.888.186.518-1.262-.445-.594S104.167,18.3,104.167,18.3Z" opacity="0.1"/>
      <path id="Path_149" data-name="Path 149" d="M103.945,7.834a3.721,3.721,0,0,1,2.073,2.449c.592,1.93,1.7,6.012,1.037,8.684a50.176,50.176,0,0,1-2.074,6.012s-1.407-1.039-1.925-.817l1.407-5.863s-3.184-8.906-2.221-9.574a6.742,6.742,0,0,1,1.7-.891Z" fill="#575a89"/>
      <path id="Path_150" data-name="Path 150" d="M105.049,45.062,84.561,2.272,50.305,18.748,62.9,45.062Z" fill="#f2f2f2"/>
      <path id="Path_151" data-name="Path 151" d="M77.629,19.068,59.434,27.819l.542,1.132L78.171,20.2Z" fill="#a0616a"/>
      <path id="Path_152" data-name="Path 152" d="M82.446,29.13,64.251,37.881l.542,1.132,18.195-8.751Z" fill="#a0616a"/>
      <path id="Path_153" data-name="Path 153" d="M85.755,13.148l-4.517,2.173,2.168,4.528,4.517-2.173Z" fill="#a0616a"/>
      <path id="Path_154" data-name="Path 154" d="M90.572,23.209l-4.517,2.173,2.168,4.528,4.517-2.173Z" fill="#a0616a"/>
      <path id="Path_155" data-name="Path 155" d="M86.066,10.012l-1.86,5.305L81.7,14.433l-.343.979,3.481,1.226,2.207-6.283Z" fill="#00ff38"/>
      <path id="Path_156" data-name="Path 156" d="M90.883,20.073l-1.86,5.305L86.515,24.5l-.343.979L89.653,26.7l2.207-6.283Z" fill="#00ff38"/>
      <path id="Path_157" data-name="Path 157" d="M2.826,94.312l9.256-1.982-1.977-9.277L.849,85.035Z" fill="#f2f2f2"/>
      <path id="Path_158" data-name="Path 158" d="M11.825,80.574s-3.4,2.434-2.266,3.408,3.4-2.921,3.4-2.921Z" fill="#ffb9b9"/>
      <path id="Path_159" data-name="Path 159" d="M27.529,84.306s-.648,8.113-.809,9.249-.324,11.359-.648,12.495a37.117,37.117,0,0,0-.648,3.894H23.481a39.419,39.419,0,0,0-.324-6.977c-.486-1.947-.324-7.3-.324-7.3s-.971-9.574-.486-10.872S27.529,84.306,27.529,84.306Z" fill="#ffb9b9"/>
      <path id="Path_160" data-name="Path 160" d="M24.938,109.458s.809.486.809.811a4.419,4.419,0,0,0,0,1.46c.162.325,1.3,1.623.648,1.947s-3.562,0-3.562,0a14.441,14.441,0,0,1,.324-2.434c.162-.162-.162-1.784-.162-1.784Z"/>
      <path id="Path_161" data-name="Path 161" d="M15.153,84.107s-.206,8.137-.164,9.283-.867,11.33-.664,12.493a37.142,37.142,0,0,1,.236,3.941l1.932.205a39.419,39.419,0,0,1,1.053-6.9c.687-1.885,1.087-7.228,1.087-7.228s1.969-9.419,1.622-10.761S15.153,84.107,15.153,84.107Z" fill="#ffb9b9"/>
      <path id="Path_162" data-name="Path 162" d="M15.095,109.392s-.856.4-.89.722a4.417,4.417,0,0,1-.153,1.452c-.195.306-1.458,1.478-.848,1.869s3.542.374,3.542.374a14.426,14.426,0,0,0-.067-2.454c-.144-.179.348-1.758.348-1.758Z"/>
      <path id="Path_163" data-name="Path 163" d="M25.262,72.136s1.3.162,1.781,2.921,2.267,9.736.809,10.223-5.828,1.46-5.99,1.136-.486-1.136-.486-1.136.486,1.46-.162,1.46-6.961-.974-6.8-1.46.486-4.057.486-4.057.971-6,1.943-6.977a2.664,2.664,0,0,0,.809-2.11Z"/>
      <path id="Path_164" data-name="Path 164" d="M27.691,70.838s-2.1-.487-2.428.162.809,1.623,1.3,1.623a3.544,3.544,0,0,0,1.3-.487Z" fill="#ffb9b9"/>
      <path id="Path_165" data-name="Path 165" d="M23.319,57.046a2.921,2.921,0,1,0-2.914-2.921A2.917,2.917,0,0,0,23.319,57.046Z" fill="#ffb9b9"/>
      <path id="Path_166" data-name="Path 166" d="M22.834,56.234s-.486,2.272-.162,2.272a15.985,15.985,0,0,1-2.428,1.46l-2.1-.325-.647-.974s3.4-2.272,3.4-3.57S22.834,56.234,22.834,56.234Z" fill="#ffb9b9"/>
      <path id="Path_167" data-name="Path 167" d="M21.377,58.506a2.371,2.371,0,0,1,.648-.325h1.3c.162,0,2.266.487,2.266.487l1.3,7.3s-2.267,3.732-.648,6.653c0,0-.486-.325-2.752-.162s-6.314.649-6.476.649-.162-1.3,0-1.623-.162-.162-.162-.974a9.945,9.945,0,0,0-.486-2.272l-2.266-8.275s2.914-1.623,3.4-1.46a6.346,6.346,0,0,0,2.266.487A14.948,14.948,0,0,1,21.377,58.506Z" fill="#fff"/>
      <path id="Path_168" data-name="Path 168" d="M25.1,58.831l.486-.162a2.789,2.789,0,0,1,2.1.811c1.133.974,5.342,3.894,5.342,3.894s1.619,1.3,1.133,2.758-1.3,5.03-3.723,4.868c0,0-1.457,1.947-2.266,1.623S26.719,71,27.2,70.838s1.781-1.785,1.781-1.785L27.367,65.97h-.486L25.1,65Z" fill="#fff"/>
      <path id="Path_169" data-name="Path 169" d="M15.387,59.8l-1.3.162s-1.133.487-.971,2.6-.971,11.683-.486,12.819c0,0-1.619,5.517-1.3,5.679s2.266,1.136,2.1.487,1.781-5.192,1.781-5.192a6.422,6.422,0,0,0,1.3-5.842V67.755Z" fill="#fff"/>
      <path id="Path_170" data-name="Path 170" d="M25.745,56.949l-2.058.449-.264-1.016.1,1.051-3.32.725-.146-.561.056.58-2.126.464-.455-4.377c-.468-1.8,1.239-3.71,3.031-4.179l.8-.208c1.316-.344,3.708-.031,4.052,1.288C24.809,53.467,23.784,55.988,25.745,56.949Z"/>
    </g>
    <path id="Path_171" data-name="Path 171" d="M180.022,50.511a3.5,3.5,0,0,1,2.49.87,2.739,2.739,0,0,1,.96,2.16,2.83,2.83,0,0,1-.96,2.19,3.5,3.5,0,0,1-2.49.87,3.565,3.565,0,0,1-2.49-.87,2.872,2.872,0,0,1-.93-2.19,2.838,2.838,0,0,1,.93-2.16A3.565,3.565,0,0,1,180.022,50.511Zm-2.07,22.95a7.841,7.841,0,0,1-5.25-1.68,5.947,5.947,0,0,1-1.98-4.8,5.47,5.47,0,0,1,1.8-4.32,7.293,7.293,0,0,1,4.8-1.65l.15-2.19h5.19l.18,5.97h-2.16a7.957,7.957,0,0,0-3.12.48,1.644,1.644,0,0,0-1.08,1.65,1.776,1.776,0,0,0,.42,1.26,1.567,1.567,0,0,0,1.2.48,1.537,1.537,0,0,0,1.26-.51,1.853,1.853,0,0,0,.45-1.32h5.55a6.264,6.264,0,0,1-.78,3.33,5.674,5.674,0,0,1-2.49,2.4A8.68,8.68,0,0,1,177.952,73.461Zm24.333-2.1-2.34-3.51a11.213,11.213,0,0,1-2.01.18,11.075,11.075,0,0,1-5.46-1.38,10.655,10.655,0,0,1-3.96-3.87,11,11,0,0,1-1.44-5.61,10.838,10.838,0,0,1,1.44-5.58,10.362,10.362,0,0,1,3.96-3.87,11.491,11.491,0,0,1,10.92,0,10.148,10.148,0,0,1,3.93,3.87,10.838,10.838,0,0,1,1.44,5.58,11.152,11.152,0,0,1-1.05,4.83,10.38,10.38,0,0,1-2.88,3.66l4.47,5.7Zm-9.21-14.19a5.791,5.791,0,0,0,1.29,3.96,4.547,4.547,0,0,0,3.57,1.44,4.466,4.466,0,0,0,3.54-1.47,5.662,5.662,0,0,0,1.32-3.93,5.639,5.639,0,0,0-1.32-3.96,5.034,5.034,0,0,0-7.11,0A5.721,5.721,0,0,0,193.075,57.171Zm24.123-10.5v12.27a4,4,0,0,0,.78,2.64,3.64,3.64,0,0,0,4.86,0,3.873,3.873,0,0,0,.84-2.64V46.671h5.88v12.27a9.579,9.579,0,0,1-1.23,4.98,7.955,7.955,0,0,1-3.36,3.09,10.57,10.57,0,0,1-4.68,1.02,10.19,10.19,0,0,1-4.62-1.02,7.75,7.75,0,0,1-3.18-3.09,10.074,10.074,0,0,1-1.14-4.98V46.671Zm21.477,4.71v3.45h6.75V59.3h-6.75v3.81h7.65v4.71h-13.53V46.671h13.53v4.71Zm4.41-8.88-7.5,2.94v-3.99l7.5-3.39Zm12.566,2.61a7.841,7.841,0,0,1,5.25,1.68,5.947,5.947,0,0,1,1.98,4.8,5.428,5.428,0,0,1-1.83,4.32,7.172,7.172,0,0,1-4.77,1.65l-.15,2.19h-5.19l-.18-5.97h2.16a8.438,8.438,0,0,0,3.12-.45,1.9,1.9,0,0,0,.63-2.94,1.473,1.473,0,0,0-1.17-.48,1.629,1.629,0,0,0-1.29.51,1.936,1.936,0,0,0-.42,1.32h-5.55a6.437,6.437,0,0,1,.75-3.33,5.857,5.857,0,0,1,2.52-2.4A8.68,8.68,0,0,1,255.651,45.111Zm-2.07,22.95a3.688,3.688,0,0,1-2.52-.84,3.044,3.044,0,0,1,0-4.38,3.608,3.608,0,0,1,2.52-.87,3.455,3.455,0,0,1,2.46.87,2.83,2.83,0,0,1,.96,2.19,2.8,2.8,0,0,1-.96,2.16A3.455,3.455,0,0,1,253.581,68.061Zm20.162-17.55a3.5,3.5,0,0,1,2.49.87,2.739,2.739,0,0,1,.96,2.16,2.83,2.83,0,0,1-.96,2.19,3.5,3.5,0,0,1-2.49.87,3.565,3.565,0,0,1-2.49-.87,2.872,2.872,0,0,1-.93-2.19,2.838,2.838,0,0,1,.93-2.16A3.565,3.565,0,0,1,273.743,50.511Zm-2.07,22.95a7.841,7.841,0,0,1-5.25-1.68,5.947,5.947,0,0,1-1.98-4.8,5.47,5.47,0,0,1,1.8-4.32,7.293,7.293,0,0,1,4.8-1.65l.15-2.19h5.19l.18,5.97H274.4a7.957,7.957,0,0,0-3.12.48,1.644,1.644,0,0,0-1.08,1.65,1.776,1.776,0,0,0,.42,1.26,1.567,1.567,0,0,0,1.2.48,1.538,1.538,0,0,0,1.26-.51,1.854,1.854,0,0,0,.45-1.32h5.55a6.264,6.264,0,0,1-.78,3.33,5.674,5.674,0,0,1-2.49,2.4A8.68,8.68,0,0,1,271.673,73.461Zm24.333-2.1-2.34-3.51a11.213,11.213,0,0,1-2.01.18,11.075,11.075,0,0,1-5.46-1.38,10.655,10.655,0,0,1-3.96-3.87,11,11,0,0,1-1.44-5.61,10.838,10.838,0,0,1,1.44-5.58,10.362,10.362,0,0,1,3.96-3.87,11.491,11.491,0,0,1,10.92,0,10.148,10.148,0,0,1,3.93,3.87,10.838,10.838,0,0,1,1.44,5.58,11.152,11.152,0,0,1-1.05,4.83,10.38,10.38,0,0,1-2.88,3.66l4.47,5.7Zm-9.21-14.19a5.791,5.791,0,0,0,1.29,3.96,4.547,4.547,0,0,0,3.57,1.44,4.466,4.466,0,0,0,3.54-1.47,5.662,5.662,0,0,0,1.32-3.93,5.639,5.639,0,0,0-1.32-3.96,5.034,5.034,0,0,0-7.11,0A5.722,5.722,0,0,0,286.8,57.171Zm24.122-10.5v12.27a4,4,0,0,0,.78,2.64,3.64,3.64,0,0,0,4.86,0,3.873,3.873,0,0,0,.84-2.64V46.671h5.88v12.27a9.579,9.579,0,0,1-1.23,4.98,7.955,7.955,0,0,1-3.36,3.09,10.57,10.57,0,0,1-4.68,1.02,10.19,10.19,0,0,1-4.62-1.02,7.75,7.75,0,0,1-3.18-3.09,10.074,10.074,0,0,1-1.14-4.98V46.671Zm21.478,4.71v3.45h6.75V59.3H332.4v3.81h7.65v4.71h-13.53V46.671h13.53v4.71Zm4.41-8.88-7.5,2.94v-3.99l7.5-3.39Zm12.025,8.88v3.45h6.75V59.3h-6.75v3.81h7.65v4.71h-13.53V46.671h13.53v4.71Zm16.976-6.27a7.841,7.841,0,0,1,5.25,1.68,5.947,5.947,0,0,1,1.98,4.8,5.428,5.428,0,0,1-1.83,4.32,7.172,7.172,0,0,1-4.77,1.65l-.15,2.19H361.1l-.18-5.97h2.16a8.438,8.438,0,0,0,3.12-.45,1.9,1.9,0,0,0,.63-2.94,1.473,1.473,0,0,0-1.17-.48,1.629,1.629,0,0,0-1.29.51,1.936,1.936,0,0,0-.42,1.32H358.4a6.436,6.436,0,0,1,.75-3.33,5.857,5.857,0,0,1,2.52-2.4A8.68,8.68,0,0,1,365.807,45.111Zm-2.07,22.95a3.688,3.688,0,0,1-2.52-.84,3.044,3.044,0,0,1,0-4.38,3.608,3.608,0,0,1,2.52-.87,3.456,3.456,0,0,1,2.46.87,2.83,2.83,0,0,1,.96,2.19,2.8,2.8,0,0,1-.96,2.16A3.456,3.456,0,0,1,363.737,68.061Z" fill="#ffa"/>
  </g>
</svg>
